<mxfile host="app.diagrams.net" modified="2022-09-25T06:58:47.100Z" agent="5.0 (Windows NT 10.0; Win64; x64) AppleWebKit/537.36 (KHTML, like Gecko) Chrome/105.0.0.0 Safari/537.36" etag="9sC8K5_eCO0eELx5JpAd" version="20.3.6" type="github">
  <diagram id="u7yg5y88VUfooyFI-_gg" name="Page-1">
    <mxGraphModel dx="865" dy="464" grid="1" gridSize="10" guides="1" tooltips="1" connect="1" arrows="1" fold="1" page="1" pageScale="1" pageWidth="850" pageHeight="1100" math="0" shadow="0">
      <root>
        <mxCell id="0" />
        <mxCell id="1" parent="0" />
        <mxCell id="vaPnFBFoX6yv_8vDQfTk-1" value="" style="endArrow=none;html=1;rounded=0;strokeWidth=3;entryX=0;entryY=0.5;entryDx=0;entryDy=0;entryPerimeter=0;" parent="1" target="vaPnFBFoX6yv_8vDQfTk-12" edge="1">
          <mxGeometry width="50" height="50" relative="1" as="geometry">
            <mxPoint x="160" y="340" as="sourcePoint" />
            <mxPoint x="570" y="340" as="targetPoint" />
          </mxGeometry>
        </mxCell>
        <mxCell id="vaPnFBFoX6yv_8vDQfTk-3" value="" style="endArrow=none;html=1;rounded=0;strokeWidth=2;entryX=0.5;entryY=1;entryDx=0;entryDy=0;" parent="1" target="vaPnFBFoX6yv_8vDQfTk-9" edge="1">
          <mxGeometry width="50" height="50" relative="1" as="geometry">
            <mxPoint x="510" y="340" as="sourcePoint" />
            <mxPoint x="420" y="220" as="targetPoint" />
          </mxGeometry>
        </mxCell>
        <mxCell id="vaPnFBFoX6yv_8vDQfTk-4" value="" style="endArrow=none;html=1;rounded=0;strokeWidth=2;entryX=0.5;entryY=1;entryDx=0;entryDy=0;" parent="1" target="vaPnFBFoX6yv_8vDQfTk-8" edge="1">
          <mxGeometry width="50" height="50" relative="1" as="geometry">
            <mxPoint x="320" y="340" as="sourcePoint" />
            <mxPoint x="230" y="220" as="targetPoint" />
          </mxGeometry>
        </mxCell>
        <mxCell id="vaPnFBFoX6yv_8vDQfTk-5" value="" style="endArrow=none;html=1;rounded=0;strokeWidth=2;exitX=0.5;exitY=0;exitDx=0;exitDy=0;" parent="1" source="vaPnFBFoX6yv_8vDQfTk-11" edge="1">
          <mxGeometry width="50" height="50" relative="1" as="geometry">
            <mxPoint x="420" y="450" as="sourcePoint" />
            <mxPoint x="510" y="340" as="targetPoint" />
          </mxGeometry>
        </mxCell>
        <mxCell id="vaPnFBFoX6yv_8vDQfTk-6" value="" style="endArrow=none;html=1;rounded=0;strokeWidth=2;entryX=0.5;entryY=0;entryDx=0;entryDy=0;" parent="1" target="vaPnFBFoX6yv_8vDQfTk-10" edge="1">
          <mxGeometry width="50" height="50" relative="1" as="geometry">
            <mxPoint x="320" y="340" as="sourcePoint" />
            <mxPoint x="230" y="450" as="targetPoint" />
          </mxGeometry>
        </mxCell>
        <mxCell id="vaPnFBFoX6yv_8vDQfTk-8" value="MAN" style="rounded=0;whiteSpace=wrap;html=1;" parent="1" vertex="1">
          <mxGeometry x="190" y="200" width="70" height="20" as="geometry" />
        </mxCell>
        <mxCell id="vaPnFBFoX6yv_8vDQfTk-9" value="METHOD" style="rounded=0;whiteSpace=wrap;html=1;" parent="1" vertex="1">
          <mxGeometry x="380" y="200" width="70" height="20" as="geometry" />
        </mxCell>
        <mxCell id="vaPnFBFoX6yv_8vDQfTk-10" value="MACHINE" style="rounded=0;whiteSpace=wrap;html=1;" parent="1" vertex="1">
          <mxGeometry x="190" y="450" width="70" height="20" as="geometry" />
        </mxCell>
        <mxCell id="vaPnFBFoX6yv_8vDQfTk-11" value="MATERIAL" style="rounded=0;whiteSpace=wrap;html=1;" parent="1" vertex="1">
          <mxGeometry x="380" y="450" width="70" height="20" as="geometry" />
        </mxCell>
        <mxCell id="vaPnFBFoX6yv_8vDQfTk-12" value="Potential error, &lt;br&gt;no real time, ineffective, inefficient" style="shape=or;whiteSpace=wrap;html=1;align=left;" parent="1" vertex="1">
          <mxGeometry x="550" y="290" width="100" height="100" as="geometry" />
        </mxCell>
        <mxCell id="vaPnFBFoX6yv_8vDQfTk-14" value="Unskilled labor" style="text;html=1;strokeColor=none;fillColor=none;align=center;verticalAlign=middle;whiteSpace=wrap;rounded=0;" parent="1" vertex="1">
          <mxGeometry x="130" y="240" width="90" height="30" as="geometry" />
        </mxCell>
        <mxCell id="vaPnFBFoX6yv_8vDQfTk-16" value="Low accuracy &amp;amp; reliability" style="text;html=1;strokeColor=none;fillColor=none;align=center;verticalAlign=middle;whiteSpace=wrap;rounded=0;" parent="1" vertex="1">
          <mxGeometry x="120" y="276" width="140" height="30" as="geometry" />
        </mxCell>
        <mxCell id="vaPnFBFoX6yv_8vDQfTk-17" value="Not integrated ERP system" style="text;html=1;strokeColor=none;fillColor=none;align=center;verticalAlign=middle;whiteSpace=wrap;rounded=0;" parent="1" vertex="1">
          <mxGeometry x="310" y="230" width="90" height="30" as="geometry" />
        </mxCell>
        <mxCell id="vaPnFBFoX6yv_8vDQfTk-19" value="Not accomodate the updated laws" style="text;html=1;strokeColor=none;fillColor=none;align=center;verticalAlign=middle;whiteSpace=wrap;rounded=0;" parent="1" vertex="1">
          <mxGeometry x="340" y="290" width="100" height="30" as="geometry" />
        </mxCell>
        <mxCell id="vaPnFBFoX6yv_8vDQfTk-20" value="Manual encodoing" style="text;html=1;strokeColor=none;fillColor=none;align=center;verticalAlign=middle;whiteSpace=wrap;rounded=0;" parent="1" vertex="1">
          <mxGeometry x="470" y="250" width="100" height="30" as="geometry" />
        </mxCell>
        <mxCell id="vaPnFBFoX6yv_8vDQfTk-21" value="ERP with limited modules only" style="text;html=1;strokeColor=none;fillColor=none;align=center;verticalAlign=middle;whiteSpace=wrap;rounded=0;" parent="1" vertex="1">
          <mxGeometry x="146" y="376" width="90" height="30" as="geometry" />
        </mxCell>
        <mxCell id="vaPnFBFoX6yv_8vDQfTk-22" value="Not an integrated data" style="text;html=1;strokeColor=none;fillColor=none;align=center;verticalAlign=middle;whiteSpace=wrap;rounded=0;" parent="1" vertex="1">
          <mxGeometry x="360" y="360" width="90" height="30" as="geometry" />
        </mxCell>
        <mxCell id="vaPnFBFoX6yv_8vDQfTk-23" style="edgeStyle=orthogonalEdgeStyle;rounded=0;orthogonalLoop=1;jettySize=auto;html=1;exitX=0.5;exitY=1;exitDx=0;exitDy=0;strokeWidth=2;" parent="1" source="vaPnFBFoX6yv_8vDQfTk-22" target="vaPnFBFoX6yv_8vDQfTk-22" edge="1">
          <mxGeometry relative="1" as="geometry" />
        </mxCell>
        <mxCell id="vaPnFBFoX6yv_8vDQfTk-24" value="Paper work is needed" style="text;html=1;strokeColor=none;fillColor=none;align=center;verticalAlign=middle;whiteSpace=wrap;rounded=0;" parent="1" vertex="1">
          <mxGeometry x="330" y="410" width="90" height="30" as="geometry" />
        </mxCell>
        <mxCell id="vaPnFBFoX6yv_8vDQfTk-26" value="" style="endArrow=none;html=1;rounded=0;strokeWidth=2;exitX=1;exitY=0.5;exitDx=0;exitDy=0;" parent="1" source="vaPnFBFoX6yv_8vDQfTk-14" edge="1">
          <mxGeometry width="50" height="50" relative="1" as="geometry">
            <mxPoint x="212" y="255" as="sourcePoint" />
            <mxPoint x="252" y="255" as="targetPoint" />
            <Array as="points" />
          </mxGeometry>
        </mxCell>
        <mxCell id="vaPnFBFoX6yv_8vDQfTk-29" value="" style="endArrow=none;html=1;rounded=0;strokeWidth=2;" parent="1" edge="1">
          <mxGeometry width="50" height="50" relative="1" as="geometry">
            <mxPoint x="260" y="290" as="sourcePoint" />
            <mxPoint x="280" y="290" as="targetPoint" />
          </mxGeometry>
        </mxCell>
        <mxCell id="vaPnFBFoX6yv_8vDQfTk-30" value="" style="endArrow=none;html=1;rounded=0;strokeWidth=2;exitX=1;exitY=0.5;exitDx=0;exitDy=0;" parent="1" source="vaPnFBFoX6yv_8vDQfTk-17" edge="1">
          <mxGeometry width="50" height="50" relative="1" as="geometry">
            <mxPoint x="385" y="245" as="sourcePoint" />
            <mxPoint x="435" y="245" as="targetPoint" />
          </mxGeometry>
        </mxCell>
        <mxCell id="vaPnFBFoX6yv_8vDQfTk-31" value="" style="endArrow=none;html=1;rounded=0;strokeWidth=2;exitX=1;exitY=0.5;exitDx=0;exitDy=0;" parent="1" edge="1">
          <mxGeometry width="50" height="50" relative="1" as="geometry">
            <mxPoint x="448" y="304.76" as="sourcePoint" />
            <mxPoint x="483" y="304.76" as="targetPoint" />
          </mxGeometry>
        </mxCell>
        <mxCell id="vaPnFBFoX6yv_8vDQfTk-32" value="" style="endArrow=none;html=1;rounded=0;strokeWidth=2;exitX=1;exitY=0.5;exitDx=0;exitDy=0;" parent="1" edge="1">
          <mxGeometry width="50" height="50" relative="1" as="geometry">
            <mxPoint x="450" y="264.76" as="sourcePoint" />
            <mxPoint x="485" y="264.76" as="targetPoint" />
          </mxGeometry>
        </mxCell>
        <mxCell id="vaPnFBFoX6yv_8vDQfTk-33" value="" style="endArrow=none;html=1;rounded=0;strokeWidth=2;exitX=1;exitY=0.5;exitDx=0;exitDy=0;" parent="1" edge="1">
          <mxGeometry width="50" height="50" relative="1" as="geometry">
            <mxPoint x="445" y="374.65999999999997" as="sourcePoint" />
            <mxPoint x="480" y="374.65999999999997" as="targetPoint" />
          </mxGeometry>
        </mxCell>
        <mxCell id="vaPnFBFoX6yv_8vDQfTk-34" value="" style="endArrow=none;html=1;rounded=0;strokeWidth=2;" parent="1" source="vaPnFBFoX6yv_8vDQfTk-24" edge="1">
          <mxGeometry width="50" height="50" relative="1" as="geometry">
            <mxPoint x="420" y="424.85" as="sourcePoint" />
            <mxPoint x="435" y="425.14" as="targetPoint" />
          </mxGeometry>
        </mxCell>
        <mxCell id="vaPnFBFoX6yv_8vDQfTk-35" value="" style="endArrow=none;html=1;rounded=0;strokeWidth=2;exitX=1;exitY=0.5;exitDx=0;exitDy=0;" parent="1" edge="1">
          <mxGeometry width="50" height="50" relative="1" as="geometry">
            <mxPoint x="240" y="394.58" as="sourcePoint" />
            <mxPoint x="275" y="394.58" as="targetPoint" />
          </mxGeometry>
        </mxCell>
      </root>
    </mxGraphModel>
  </diagram>
</mxfile>
